<svg width="160" height="80" viewBox="0 0 160 80" fill="none" xmlns="http://www.w3.org/2000/svg">
<g filter="url(#filter0_d_190_2643)">
<path d="M21.5295 6.87219L22.9828 9.60553C23.2992 10.0986 23.6675 10.5563 24.0815 10.9709C25.2988 12.1882 26.4575 13.4642 27.4948 14.8309C29.9588 18.0669 31.6215 21.6602 32.8095 25.5509C33.5215 27.9269 33.9081 30.3615 33.9375 32.8255C34.0575 40.1895 31.5321 46.5135 26.4255 51.7695C25.598 52.6027 24.7045 53.3674 23.7535 54.0562C23.2468 54.0562 23.0108 53.6562 22.8028 53.3135C22.4028 52.6469 22.1788 51.9175 22.0601 51.1762C21.8815 50.2855 21.7628 49.3949 21.8228 48.4735V48.0575C21.7935 47.9682 21.3481 7.08153 21.5255 6.87353L21.5295 6.87219Z" fill="#E7E7E7"/>
<path d="M21.5296 6.78436C21.4696 6.66436 21.4096 6.75502 21.351 6.81369C21.3803 7.40702 21.1723 7.94169 20.8443 8.44702C20.4883 8.95369 20.0123 9.33769 19.5376 9.75369C16.895 12.0404 14.8176 14.8017 13.1536 17.8897C10.9563 22.047 9.79896 26.5003 9.47362 31.1923C9.32696 32.8857 10.007 38.8537 10.543 40.575C11.9963 45.1483 14.6096 48.9777 18.0096 52.303C18.8416 53.103 19.7323 53.847 20.6523 54.559C20.919 54.559 20.9496 54.3217 21.0083 54.143C21.1253 53.7638 21.2144 53.3765 21.275 52.9843C21.5416 51.5003 21.691 50.015 21.8683 48.531L21.5416 6.78436H21.5296Z" fill="#C9C9C9"/>
<path d="M22.9864 55.8669C23.0464 55.1843 23.3864 54.6202 23.7291 54.0562C23.3731 53.9096 23.1051 53.6109 22.8971 53.2829C22.7184 52.9856 22.5704 52.6163 22.4518 52.3029C22.0358 51.0563 21.9451 49.7496 21.8278 48.4722V47.6989C21.6811 47.8189 21.6491 48.8269 21.6491 48.9762C21.5598 50.3416 21.3824 51.6789 21.1158 52.9842C21.0264 53.5176 20.9691 54.0536 20.6411 54.5282C20.6411 54.5882 20.6411 54.6482 20.6704 54.7362C21.2038 56.3096 21.3531 57.9136 21.4438 59.5469V60.1402C21.4438 60.8522 21.4144 60.7043 22.0078 60.9403C22.2451 61.0296 22.5144 61.0603 22.7504 61.2376C22.9291 61.2376 22.9584 61.0909 22.9584 60.9709L22.8691 59.9909V57.2576C22.8398 56.7829 22.9291 56.3069 22.9891 55.8616L22.9864 55.8669Z" fill="white"/>
<path d="M45.5337 43.4485V46.2763C45.5305 46.3883 45.5369 46.5004 45.5528 46.6113C45.5895 46.9462 45.7951 47.1504 46.0974 47.2443C46.3794 47.3186 46.6659 47.3745 46.9551 47.4118C47.1226 47.4309 47.1784 47.5044 47.1974 47.6841C47.2165 48.3172 47.1607 48.3921 46.5467 48.354C45.1144 48.2791 43.6807 48.2614 42.2484 48.354H42.1123C41.6657 48.373 41.6289 48.3349 41.6289 47.8883C41.6289 47.8135 41.648 47.7209 41.648 47.646C41.648 47.5098 41.7406 47.4418 41.8713 47.4418C42.1708 47.405 42.4485 47.3301 42.729 47.2743C43.1198 47.1817 43.3417 46.9394 43.3798 46.5486C43.4343 46.1211 43.4343 45.6745 43.4343 45.2457L43.4533 40.2599C43.4595 40.1153 43.4243 39.9719 43.352 39.8465C43.2797 39.7211 43.1731 39.619 43.0449 39.5519C42.7082 39.3649 42.3521 39.2151 41.9829 39.1053C41.8713 39.0686 41.7596 39.0509 41.667 38.9937C41.3947 38.863 41.3879 38.622 41.648 38.4722C41.7406 38.4178 41.8522 38.3796 41.9639 38.3606C43.093 38.1939 44.2024 37.9134 45.275 37.5233C45.4983 37.4484 45.5541 37.4688 45.5745 37.6907C45.5936 37.8269 45.5745 37.9902 45.5555 38.1182C45.5187 38.3606 45.5187 38.6016 45.5187 38.8262C45.5187 38.9188 45.5378 39.0127 45.6304 39.0686C45.7229 39.1244 45.8169 39.0686 45.9027 39.0141C46.2934 38.7146 46.6842 38.4368 47.1117 38.1972C47.7243 37.8623 48.3779 37.5641 49.0858 37.4715C49.9436 37.3599 50.6856 37.5832 51.3378 38.1414C51.6074 38.3827 51.8449 38.6577 52.0444 38.9596C52.2309 39.2319 52.2486 39.2387 52.491 39.0522C53.1989 38.5308 53.9423 38.0665 54.7429 37.7316C55.5802 37.3776 56.4366 37.3231 57.2916 37.6199C58.1657 37.9358 58.762 38.5498 59.116 39.3871C59.4155 40.057 59.5435 40.7486 59.5435 41.4702V46.456C59.5435 46.791 59.6797 47.0006 60.0091 47.164C60.3631 47.3002 60.7539 47.3682 61.1256 47.4431C61.3679 47.4976 61.3679 47.4976 61.3679 47.7427C61.3312 48.3553 61.2753 48.3935 60.679 48.3553C59.1857 48.2716 57.6889 48.2716 56.1956 48.3553C55.8961 48.3744 55.8961 48.3744 55.8797 48.0762V47.9836C55.8607 47.4799 55.8607 47.4799 56.3454 47.371L56.8287 47.2403C56.9924 47.2017 57.1384 47.1092 57.2432 46.9775C57.3479 46.8459 57.4052 46.6828 57.406 46.5146L57.4604 45.119L57.4237 41.473C57.4094 41.1474 57.3403 40.8266 57.2194 40.524C56.7538 39.3885 55.7313 38.9801 54.7442 39.0917C53.9995 39.1666 53.3487 39.4634 52.7347 39.8923C52.604 39.9848 52.5114 40.0965 52.5304 40.283C52.6979 41.4743 52.5849 42.6656 52.6053 43.8556V46.4424C52.6053 46.9081 52.7918 47.1313 53.2384 47.243L54.0962 47.4295C54.2269 47.4486 54.3004 47.5044 54.3004 47.6528V47.789C54.2813 48.3104 54.2459 48.3336 53.7231 48.3281C52.235 48.2532 50.7455 48.2736 49.2765 48.3281C48.7727 48.3472 48.7319 48.2913 48.755 47.7835C48.7741 47.484 48.8095 47.4676 49.0899 47.4118L49.7026 47.3002C50.2472 47.1885 50.4473 46.9843 50.4841 46.407L50.5386 45.1599L50.5018 41.4199C50.465 40.9542 50.3657 40.5077 50.1111 40.0801C49.7394 39.3912 49.158 39.0386 48.3615 39.0005C47.561 38.946 46.8544 39.2428 46.1831 39.6132C45.7175 39.8855 45.5133 40.2081 45.55 40.7486V43.4648L45.5337 43.4485ZM80.5882 43.5615V46.1851C80.5912 46.3717 80.6035 46.558 80.625 46.7433C80.6329 46.8669 80.6807 46.9845 80.7613 47.0785C80.8418 47.1726 80.9507 47.2379 81.0715 47.2648C81.3926 47.3584 81.7233 47.4145 82.0573 47.4322C82.2438 47.4513 82.2805 47.5248 82.2996 47.6746V47.8053C82.2805 48.4561 82.207 48.531 81.5739 48.4942C80.158 48.4016 78.7461 48.4193 77.3315 48.4942L76.7869 48.5133C76.6753 48.5133 76.6507 48.4588 76.6194 48.3826C76.5651 48.1249 76.5651 47.8587 76.6194 47.6011C76.6385 47.4894 76.712 47.4649 76.8237 47.4336C77.096 47.3968 77.3274 47.341 77.5861 47.2975C78.0517 47.1858 78.2192 46.9979 78.2369 46.5159L78.2913 44.9529V40.3756C78.2913 40.0407 78.1606 39.8364 77.8638 39.6867C77.5289 39.5001 77.1749 39.3708 76.8019 39.2401C76.6902 39.2033 76.5786 39.1652 76.486 39.1094C76.2437 38.9419 76.2137 38.7009 76.4492 38.5144C76.5549 38.4276 76.6846 38.3753 76.8209 38.3647C78.0122 38.1781 79.1654 37.9181 80.2819 37.4715C80.4126 37.4171 80.4684 37.4525 80.5242 37.5641C80.58 37.6757 80.5991 37.8064 80.5787 37.9358L80.5242 38.8099C80.5242 38.9215 80.4697 39.0822 80.561 39.1257C80.6726 39.2006 80.7475 39.0332 80.8401 38.9896C81.3895 38.5287 81.9963 38.1411 82.6454 37.8364C83.2227 37.5641 83.8163 37.3898 84.4875 37.4279C85.7347 37.5028 86.6278 38.1359 87.2037 39.2333C87.5032 39.8106 87.6312 40.4423 87.6871 41.0945L87.7415 42.456L87.7606 46.5677C87.7796 46.8836 87.8913 47.0891 88.2071 47.2008C88.5346 47.3099 88.8707 47.391 89.2119 47.4431C89.5115 47.4799 89.5278 47.5357 89.5469 47.8148V47.9074C89.5101 48.5405 89.472 48.5582 88.8389 48.5201C87.4507 48.4457 86.0595 48.4457 84.6713 48.5201C84.4848 48.5391 84.2996 48.5201 84.1267 48.5391C84.0151 48.5391 83.9402 48.5201 83.9225 48.4084C83.8857 48.1661 83.8476 47.9251 83.9034 47.6637C83.9225 47.5521 83.9783 47.4962 84.1077 47.4772L84.9654 47.341C85.2649 47.2661 85.431 47.0687 85.4692 46.7964L85.5059 46.275L85.4869 42.3865C85.4869 41.94 85.4678 41.4934 85.3752 41.0468C85.1519 40.0938 84.4263 39.413 83.4419 39.3177C82.5841 39.2251 81.8081 39.4484 81.0974 39.9127C80.7434 40.136 80.5936 40.4518 80.5936 40.8426V43.6527C80.5936 43.5983 80.5936 43.5983 80.6127 43.5983L80.5882 43.5615Z" fill="white"/>
<path d="M135.085 38.2955C134.881 36.9367 134.377 35.7277 133.503 34.6671C132.741 33.7301 131.755 33.0005 130.637 32.5459C129.466 32.0626 128.217 31.9128 126.953 31.876C126.431 31.857 119.324 31.9686 118.803 31.876C118.672 31.857 118.579 31.8951 118.503 32.0067C118.411 32.1429 118.317 32.2858 118.261 32.4342C118.037 32.938 118.037 32.8999 118.577 32.9734C119.023 33.0483 119.451 33.085 119.88 33.2157C120.27 33.3465 120.549 33.5697 120.642 33.9972C120.679 34.2015 120.717 40.7503 120.717 43.8028L120.642 45.9812C120.623 46.1486 120.605 46.3161 120.549 46.4645C120.475 46.6878 120.345 46.8729 120.122 46.9683C119.876 47.0839 119.611 47.1531 119.34 47.1725C118.837 47.2269 118.763 47.2474 118.596 47.8056L118.541 48.0098C118.504 48.2521 118.522 48.2889 118.764 48.2889L124.328 48.3434L126.506 48.3066L128.013 48.1201C129.725 47.8042 131.251 47.0962 132.552 45.9621C133.296 45.3054 133.903 44.5088 134.339 43.6176C134.86 42.5761 135.083 41.4392 135.139 40.2874C135.232 39.6366 135.194 38.9667 135.085 38.2969V38.2955ZM132.386 40.9368C132.311 42.1281 132.07 43.2813 131.456 44.3229C130.675 45.6816 129.558 46.6306 128.015 46.9642C127.345 47.1003 126.675 47.1684 125.972 47.0758C125.469 47.0214 124.987 46.9642 124.521 46.7967C123.684 46.4972 123.385 45.9798 123.368 45.1629L123.349 33.9441C123.349 33.2743 123.648 33.1272 124.13 33.1068C124.856 33.0524 125.601 33.0701 126.326 33.1436C127.099 33.2183 127.857 33.4016 128.578 33.6882C129.114 33.9115 129.61 34.2195 130.049 34.6004C131.053 35.4581 131.723 36.5337 132.091 37.7999C132.39 38.8238 132.445 39.8653 132.39 40.9069L132.386 40.9368ZM150.549 42.7612C150.549 42.6496 150.549 42.557 150.53 42.4454C150.362 41.4215 149.822 40.64 148.986 40.045C148.447 39.6543 147.832 39.3942 147.199 39.2077C147.088 39.1709 146.995 39.1328 146.884 39.1151C146.903 39.0225 146.958 39.0035 147.014 38.9844C147.386 38.7979 147.74 38.5937 148.056 38.3146C148.633 37.8312 149.009 37.2349 149.209 36.5092C149.321 36.1185 149.321 35.7277 149.284 35.3179C149.254 34.8385 149.116 34.3721 148.88 33.9532C148.645 33.5344 148.319 33.1739 147.925 32.8985C147.067 32.2654 146.064 32.0054 145.022 31.9863C143.013 31.9496 140.986 31.9863 138.977 31.9863C138.4 31.9863 137.824 32.0231 137.228 31.9319C137.116 31.9128 136.955 31.8774 136.874 32.0067C136.738 32.2491 136.574 32.4901 136.52 32.7692C136.501 32.8999 136.539 32.9734 136.687 32.9925L137.971 33.179C138.475 33.2539 138.829 33.533 138.864 33.9795C138.901 34.2882 138.919 34.5987 138.919 34.9095L138.882 38.3881L138.863 45.2718C138.863 45.6803 138.808 46.0724 138.732 46.4808C138.714 46.6105 138.659 46.7322 138.573 46.8312C138.487 46.9302 138.375 47.0024 138.249 47.039C137.877 47.1507 137.523 47.2623 137.132 47.2623C137.028 47.2524 136.923 47.2783 136.836 47.3357C136.748 47.3931 136.682 47.4786 136.649 47.5782C136.574 47.7457 136.513 47.9322 136.482 48.0997C136.445 48.3229 136.501 48.3992 136.724 48.372C136.891 48.3529 143.032 48.5027 144.185 48.391C144.874 48.3161 145.547 48.2236 146.231 48.0193C147.402 47.6476 148.483 47.1071 149.338 46.1949C150.046 45.4502 150.455 44.557 150.492 43.5155C150.546 43.2731 150.546 43.0322 150.546 42.7708L150.549 42.7612ZM141.525 35.1368L141.579 33.6487C141.579 33.3696 141.691 33.2403 141.97 33.1831C142.416 33.0905 142.863 33.1286 143.31 33.1463C143.756 33.1831 144.184 33.2389 144.63 33.3696C145.447 33.6119 146.082 34.0776 146.455 34.8577C146.624 35.2124 146.713 35.6002 146.715 35.9932C146.734 36.5147 146.696 37.0171 146.491 37.5181C146.176 38.207 145.675 38.6536 144.947 38.7843C144.22 38.915 142.156 38.8592 141.841 38.8592C141.561 38.8592 141.541 38.8224 141.541 38.5433V36.791C141.497 36.2462 141.491 35.6989 141.522 35.1532L141.525 35.1368ZM147.57 45.1466C147.254 45.9839 146.677 46.5625 145.858 46.8757C145.412 47.0431 144.965 47.148 144.497 47.118C143.92 47.099 143.344 47.118 142.768 47.0064C141.986 46.8389 141.632 46.0942 141.576 45.555C141.484 44.606 141.54 43.638 141.522 42.9314V40.4753C141.522 40.1757 141.559 40.0845 141.876 40.0845L143.625 40.1036L144.817 40.2397C145.654 40.4262 146.417 40.7435 147.013 41.3929C147.496 41.9144 147.758 42.5461 147.813 43.235C147.868 43.8858 147.833 44.5189 147.59 45.133L147.57 45.1466Z" fill="white"/>
<path d="M100.294 39.5414L100.777 39.6163C101.299 39.6353 101.913 39.4488 102.098 38.7231C102.2 38.3765 102.2 38.0078 102.098 37.6612C101.986 37.6612 101.931 37.7538 101.875 37.7919C101.596 38.0152 101.28 38.1459 100.945 38.1826C100.275 38.2575 99.6052 38.2194 98.9544 37.9784L98.0422 37.6625C97.406 37.4542 96.7364 37.3664 96.068 37.4038C95.119 37.4787 94.2259 37.7946 93.3886 38.2412C92.4954 38.7245 91.8637 39.4502 91.5642 40.4373C91.3967 41.0145 91.3776 41.6082 91.4525 42.2045C91.6391 43.5633 92.3457 44.5122 93.6105 45.0146C93.6854 45.0337 93.7412 45.0691 93.8147 45.0895C93.9822 45.1821 94.0013 45.276 93.8515 45.4054L93.3859 45.7212L92.2694 46.4102C91.9903 46.5776 91.9536 46.7097 92.0461 47.0051C92.1569 47.3527 92.363 47.6622 92.6411 47.8983C92.8964 48.1174 93.1857 48.2935 93.4975 48.4197C93.7017 48.5123 93.7017 48.5559 93.5166 48.7193L92.4546 49.4817C92.1006 49.754 91.7466 50.0263 91.4498 50.3748C91.2434 50.5957 91.0946 50.8641 91.0167 51.1562C90.9388 51.4483 90.9342 51.7552 91.0032 52.0495C91.1416 52.6954 91.4798 53.2813 91.9699 53.7241C92.4538 54.1722 93.0421 54.4918 93.6813 54.654C94.7228 54.9536 95.8025 54.9699 96.8631 54.7657C98.388 54.4866 99.7223 53.8126 100.771 52.6635C101.496 51.9011 101.924 51.0079 101.962 49.9405C102.003 49.3232 101.823 48.7115 101.455 48.2141C101.087 47.7168 100.555 47.3661 99.9524 47.2243L98.9476 47.0378L95.8774 46.7655C95.5425 46.7464 95.2075 46.6906 94.9284 46.5232C94.5744 46.2999 94.4819 45.8724 94.7051 45.5933C94.8726 45.389 95.0768 45.2583 95.3382 45.2393L95.9332 45.1848C97.1099 45.0651 98.2145 44.5618 99.0769 43.7525C99.5374 43.3263 99.8667 42.7774 100.026 42.1705C100.249 41.3699 100.249 40.5367 100.063 39.7198C100.008 39.5155 100.026 39.4965 100.286 39.5332L100.294 39.5414ZM95.7331 48.8091C95.8447 48.8282 95.9564 48.8091 96.068 48.8091C96.8495 48.8459 97.6501 48.9017 98.4125 49.1087C98.6614 49.1822 98.9041 49.2756 99.1382 49.3878C99.8829 49.7962 100.162 50.5042 100.068 51.2666C99.9564 52.104 99.4908 52.6989 98.7651 53.091C98.2818 53.3633 97.7413 53.4818 97.1831 53.5376C96.9789 53.5567 96.7923 53.5376 96.5881 53.5376C95.9373 53.5567 95.3042 53.4831 94.6902 53.2217C94.2627 53.0543 93.9087 52.8133 93.5928 52.477C92.942 51.8262 92.6397 50.6349 93.6119 49.6669C94.2068 49.1223 94.8781 48.737 95.7331 48.8091ZM97.8543 43.0037C97.4635 43.9894 96.6072 44.2876 95.7521 44.1569C94.9706 44.0452 94.3934 43.6177 94.023 42.9097C93.5397 41.9608 93.4104 40.9764 93.6881 39.9512C93.8923 39.1888 94.358 38.6115 95.1762 38.4808C96.2178 38.2943 97.2185 38.6673 97.744 39.7089C98.0163 40.2126 98.1348 40.8253 98.1348 41.6994C98.1157 42.0534 98.0422 42.5367 97.8556 43.0023L97.8543 43.0037ZM74.412 41.7375C74.2445 40.7327 73.8728 39.8205 73.1839 39.0581C72.1601 37.9226 70.8585 37.4243 69.3881 37.4202C68.1042 37.4011 66.8965 37.7742 65.8155 38.444C64.7527 39.08 63.9738 40.0987 63.6385 41.2909C63.3226 42.3706 63.3389 43.4693 63.584 44.5653C64.2348 47.5062 66.5058 48.7696 69.2206 48.5845C70.0212 48.53 70.7836 48.2686 71.5079 47.9146C72.5876 47.4109 73.3691 46.6117 73.9082 45.5511C74.3358 44.677 74.5209 43.7457 74.5032 42.6851L74.4106 41.7361L74.412 41.7375ZM71.7707 45.8683C71.6376 46.2869 71.3854 46.6577 71.045 46.9353C70.7045 47.2129 70.2906 47.3852 69.8537 47.4313C69.0368 47.5429 68.2716 47.3387 67.5841 46.854C67.0877 46.4889 66.6858 46.0104 66.4118 45.4585C65.6494 43.8955 65.5187 42.2589 65.9081 40.5843C66.0334 40.066 66.3046 39.5945 66.6896 39.2255C67.3785 38.5924 68.1777 38.444 69.0722 38.6306C69.9299 38.8171 70.5794 39.2814 71.1145 39.9893C71.6495 40.6973 71.896 41.5142 72.0444 42.372C72.1192 42.7995 72.1192 43.246 72.1369 43.5251C72.1369 44.4183 72.0621 45.1589 71.7829 45.8696L71.7707 45.8683ZM115.066 41.8873C114.93 40.8076 114.527 39.8219 113.763 39.0036C112.759 37.9062 111.456 37.4406 110.006 37.4215C108.759 37.4025 107.605 37.7565 106.545 38.3705C105.353 39.0785 104.535 40.0819 104.219 41.4407C103.842 42.9231 104 44.4911 104.666 45.8683C105.279 47.1712 106.321 48.0086 107.699 48.3802C109.224 48.7887 110.677 48.6035 112.09 47.9146C113.318 47.3196 114.192 46.3897 114.695 45.1235C114.994 44.3788 115.103 43.5796 115.122 42.6483C115.141 42.4809 115.103 42.1827 115.068 41.8859L115.066 41.8873ZM112.499 45.6273C112.199 46.6321 111.569 47.2829 110.508 47.4326C109.727 47.5443 108.983 47.3578 108.312 46.9112C107.735 46.5204 107.326 45.999 107.028 45.3863C106.693 44.7355 106.507 44.0466 106.433 43.34C106.321 42.4659 106.321 41.6109 106.526 40.7354C106.565 40.5628 106.621 40.3945 106.693 40.233C107.215 38.9301 108.368 38.3351 109.727 38.6333C110.639 38.8375 111.326 39.3413 111.848 40.1037C112.352 40.8484 112.593 41.6667 112.706 42.5544C112.76 42.9084 112.78 43.2801 112.76 43.5959C112.76 44.3216 112.706 44.9915 112.488 45.6423L112.499 45.6273Z" fill="white"/>
</g>
<defs>
<filter id="filter0_d_190_2643" x="-4" y="0" width="168" height="88" filterUnits="userSpaceOnUse" color-interpolation-filters="sRGB">
<feFlood flood-opacity="0" result="BackgroundImageFix"/>
<feColorMatrix in="SourceAlpha" type="matrix" values="0 0 0 0 0 0 0 0 0 0 0 0 0 0 0 0 0 0 127 0" result="hardAlpha"/>
<feOffset dy="4"/>
<feGaussianBlur stdDeviation="2"/>
<feComposite in2="hardAlpha" operator="out"/>
<feColorMatrix type="matrix" values="0 0 0 0 0 0 0 0 0 0 0 0 0 0 0 0 0 0 0.25 0"/>
<feBlend mode="normal" in2="BackgroundImageFix" result="effect1_dropShadow_190_2643"/>
<feBlend mode="normal" in="SourceGraphic" in2="effect1_dropShadow_190_2643" result="shape"/>
</filter>
</defs>
</svg>
