<svg width="161" height="80" viewBox="0 0 161 80" fill="none" xmlns="http://www.w3.org/2000/svg">
<g id="mongodb-ar21 1">
<path id="Vector" d="M22.0295 6.87219L23.4828 9.60553C23.7992 10.0986 24.1675 10.5563 24.5815 10.9709C25.7988 12.1882 26.9575 13.4642 27.9948 14.8309C30.4588 18.0669 32.1215 21.6602 33.3095 25.5509C34.0215 27.9269 34.4081 30.3615 34.4375 32.8255C34.5575 40.1895 32.0321 46.5135 26.9255 51.7695C26.098 52.6027 25.2045 53.3674 24.2535 54.0562C23.7468 54.0562 23.5108 53.6562 23.3028 53.3135C22.9028 52.6469 22.6788 51.9175 22.5601 51.1762C22.3815 50.2855 22.2628 49.3949 22.3228 48.4735V48.0575C22.2935 47.9682 21.8481 7.08153 22.0255 6.87353L22.0295 6.87219Z" fill="#AABAE3"/>
<path id="Vector_2" d="M22.0296 6.78436C21.9696 6.66436 21.9096 6.75502 21.851 6.81369C21.8803 7.40702 21.6723 7.94169 21.3443 8.44702C20.9883 8.95369 20.5123 9.33769 20.0376 9.75369C17.395 12.0404 15.3176 14.8017 13.6536 17.8897C11.4563 22.047 10.299 26.5003 9.97362 31.1923C9.82696 32.8857 10.507 38.8537 11.043 40.575C12.4963 45.1483 15.1096 48.9777 18.5096 52.303C19.3416 53.103 20.2323 53.847 21.1523 54.559C21.419 54.559 21.4496 54.3217 21.5083 54.143C21.6253 53.7638 21.7144 53.3765 21.775 52.9843C22.0416 51.5003 22.191 50.015 22.3683 48.531L22.0416 6.78436H22.0296Z" fill="#002A91"/>
<path id="Vector_3" d="M23.4864 55.8669C23.5464 55.1842 23.8864 54.6202 24.2291 54.0562C23.8731 53.9096 23.6051 53.6109 23.3971 53.2829C23.2184 52.9856 23.0704 52.6162 22.9518 52.3029C22.5358 51.0562 22.4451 49.7496 22.3278 48.4722V47.6989C22.1811 47.8189 22.1491 48.8269 22.1491 48.9762C22.0598 50.3415 21.8824 51.6789 21.6158 52.9842C21.5264 53.5176 21.4691 54.0536 21.1411 54.5282C21.1411 54.5882 21.1411 54.6482 21.1704 54.7362C21.7038 56.3095 21.8531 57.9136 21.9438 59.5469V60.1402C21.9438 60.8522 21.9144 60.7042 22.5078 60.9402C22.7451 61.0296 23.0144 61.0602 23.2504 61.2376C23.4291 61.2376 23.4584 61.0909 23.4584 60.9709L23.3691 59.9909V57.2576C23.3398 56.7829 23.4291 56.3069 23.4891 55.8616L23.4864 55.8669Z" fill="#2E3F69"/>
<g id="Group">
<path id="Vector_4" d="M46.0337 43.4485V46.2763C46.0305 46.3883 46.0369 46.5004 46.0528 46.6113C46.0895 46.9462 46.2951 47.1504 46.5974 47.2444C46.8794 47.3186 47.1659 47.3746 47.4551 47.4118C47.6226 47.4309 47.6784 47.5044 47.6974 47.6841C47.7165 48.3172 47.6607 48.3921 47.0467 48.354C45.6144 48.2791 44.1807 48.2614 42.7484 48.354H42.6123C42.1657 48.373 42.1289 48.3349 42.1289 47.8884C42.1289 47.8135 42.148 47.7209 42.148 47.646C42.148 47.5099 42.2406 47.4418 42.3713 47.4418C42.6708 47.405 42.9485 47.3301 43.229 47.2743C43.6198 47.1817 43.8417 46.9394 43.8798 46.5486C43.9343 46.1211 43.9343 45.6746 43.9343 45.2457L43.9533 40.2599C43.9595 40.1153 43.9243 39.9719 43.852 39.8465C43.7797 39.7212 43.6731 39.619 43.5449 39.5519C43.2082 39.3649 42.8521 39.2151 42.4829 39.1053C42.3713 39.0686 42.2596 39.0509 42.167 38.9937C41.8947 38.863 41.8879 38.622 42.148 38.4722C42.2406 38.4178 42.3522 38.3796 42.4639 38.3606C43.593 38.1939 44.7024 37.9134 45.775 37.5233C45.9983 37.4484 46.0541 37.4688 46.0745 37.6907C46.0936 37.8269 46.0745 37.9903 46.0555 38.1182C46.0187 38.3606 46.0187 38.6016 46.0187 38.8262C46.0187 38.9188 46.0378 39.0127 46.1304 39.0686C46.2229 39.1244 46.3169 39.0686 46.4027 39.0141C46.7934 38.7146 47.1842 38.4368 47.6117 38.1972C48.2243 37.8623 48.8779 37.5641 49.5858 37.4715C50.4436 37.3599 51.1856 37.5832 51.8378 38.1414C52.1074 38.3827 52.3449 38.6577 52.5444 38.9596C52.7309 39.2319 52.7486 39.2388 52.991 39.0522C53.6989 38.5308 54.4423 38.0665 55.2429 37.7316C56.0802 37.3776 56.9366 37.3231 57.7916 37.6199C58.6657 37.9358 59.262 38.5498 59.616 39.3872C59.9155 40.057 60.0435 40.7487 60.0435 41.4702V46.4561C60.0435 46.791 60.1797 47.0007 60.5091 47.164C60.8631 47.3002 61.2539 47.3683 61.6256 47.4431C61.8679 47.4976 61.8679 47.4976 61.8679 47.7427C61.8312 48.3553 61.7753 48.3935 61.179 48.3553C59.6857 48.2716 58.1889 48.2716 56.6956 48.3553C56.3961 48.3744 56.3961 48.3744 56.3797 48.0762V47.9837C56.3607 47.4799 56.3607 47.4799 56.8454 47.371L57.3287 47.2403C57.4924 47.2017 57.6384 47.1092 57.7432 46.9775C57.8479 46.8459 57.9052 46.6828 57.906 46.5146L57.9604 45.1191L57.9237 41.473C57.9094 41.1474 57.8403 40.8266 57.7194 40.524C57.2538 39.3885 56.2313 38.9801 55.2442 39.0917C54.4995 39.1666 53.8487 39.4634 53.2347 39.8923C53.104 39.9849 53.0114 40.0965 53.0304 40.283C53.1979 41.4743 53.0849 42.6656 53.1053 43.8556V46.4424C53.1053 46.9081 53.2918 47.1314 53.7384 47.243L54.5962 47.4295C54.7269 47.4486 54.8004 47.5044 54.8004 47.6528V47.789C54.7813 48.3104 54.7459 48.3336 54.2231 48.3281C52.735 48.2532 51.2455 48.2737 49.7765 48.3281C49.2727 48.3472 49.2319 48.2914 49.255 47.7835C49.2741 47.484 49.3095 47.4677 49.5899 47.4118L50.2026 47.3002C50.7472 47.1885 50.9473 46.9843 50.9841 46.407L51.0386 45.1599L51.0018 41.4199C50.965 40.9542 50.8657 40.5077 50.6111 40.0802C50.2394 39.3912 49.658 39.0386 48.8615 39.0005C48.061 38.946 47.3544 39.2428 46.6831 39.6132C46.2175 39.8855 46.0133 40.2081 46.05 40.7487V43.4648L46.0337 43.4485ZM81.0882 43.5615V46.1851C81.0912 46.3717 81.1035 46.558 81.125 46.7433C81.1329 46.8669 81.1807 46.9845 81.2613 47.0785C81.3418 47.1726 81.4507 47.2379 81.5715 47.2648C81.8926 47.3584 82.2233 47.4146 82.5573 47.4323C82.7438 47.4513 82.7805 47.5248 82.7996 47.6746V47.8053C82.7805 48.4561 82.707 48.531 82.0739 48.4942C80.658 48.4016 79.2461 48.4193 77.8315 48.4942L77.2869 48.5133C77.1753 48.5133 77.1507 48.4588 77.1194 48.3826C77.0651 48.1249 77.0651 47.8587 77.1194 47.6011C77.1385 47.4894 77.212 47.4649 77.3237 47.4336C77.596 47.3969 77.8274 47.341 78.0861 47.2975C78.5517 47.1858 78.7192 46.9979 78.7369 46.516L78.7913 44.953V40.3756C78.7913 40.0407 78.6606 39.8365 78.3638 39.6867C78.0289 39.5002 77.6749 39.3708 77.3019 39.2401C77.1902 39.2034 77.0786 39.1652 76.986 39.1094C76.7437 38.9419 76.7137 38.701 76.9492 38.5144C77.0549 38.4276 77.1846 38.3753 77.3209 38.3647C78.5122 38.1781 79.6654 37.9181 80.7819 37.4715C80.9126 37.4171 80.9684 37.4525 81.0242 37.5641C81.08 37.6758 81.0991 37.8065 81.0787 37.9358L81.0242 38.8099C81.0242 38.9215 80.9697 39.0822 81.061 39.1258C81.1726 39.2006 81.2475 39.0332 81.3401 38.9896C81.8895 38.5288 82.4963 38.1411 83.1454 37.8364C83.7227 37.5641 84.3163 37.3898 84.9875 37.428C86.2347 37.5028 87.1278 38.1359 87.7037 39.2333C88.0032 39.8106 88.1312 40.4423 88.1871 41.0945L88.2415 42.456L88.2606 46.5677C88.2796 46.8836 88.3913 47.0892 88.7071 47.2008C89.0346 47.3099 89.3707 47.391 89.7119 47.4431C90.0115 47.4799 90.0278 47.5357 90.0469 47.8148V47.9074C90.0101 48.5405 89.972 48.5582 89.3389 48.5201C87.9507 48.4457 86.5595 48.4457 85.1713 48.5201C84.9848 48.5392 84.7996 48.5201 84.6267 48.5392C84.5151 48.5392 84.4402 48.5201 84.4225 48.4084C84.3857 48.1661 84.3476 47.9251 84.4034 47.6637C84.4225 47.5521 84.4783 47.4962 84.6077 47.4772L85.4654 47.341C85.7649 47.2661 85.931 47.0687 85.9692 46.7964L86.0059 46.275L85.9869 42.3865C85.9869 41.94 85.9678 41.4934 85.8752 41.0468C85.6519 40.0938 84.9263 39.413 83.9419 39.3177C83.0841 39.2251 82.3081 39.4484 81.5974 39.9127C81.2434 40.136 81.0936 40.4518 81.0936 40.8426V43.6527C81.0936 43.5983 81.0936 43.5983 81.1127 43.5983L81.0882 43.5615Z" fill="#2E3F69"/>
<path id="Vector_5" d="M135.585 38.2955C135.381 36.9367 134.877 35.7277 134.003 34.6671C133.241 33.7301 132.255 33.0005 131.137 32.5459C129.966 32.0626 128.717 31.9128 127.453 31.876C126.931 31.857 119.824 31.9686 119.303 31.876C119.172 31.857 119.079 31.8951 119.003 32.0067C118.911 32.1429 118.817 32.2858 118.761 32.4342C118.537 32.938 118.537 32.8999 119.077 32.9734C119.523 33.0483 119.951 33.085 120.38 33.2157C120.77 33.3465 121.049 33.5697 121.142 33.9972C121.179 34.2015 121.217 40.7503 121.217 43.8028L121.142 45.9812C121.123 46.1486 121.105 46.3161 121.049 46.4645C120.975 46.6878 120.845 46.8729 120.622 46.9683C120.376 47.0839 120.111 47.1531 119.84 47.1725C119.337 47.2269 119.263 47.2474 119.096 47.8056L119.041 48.0098C119.004 48.2521 119.022 48.2889 119.264 48.2889L124.828 48.3434L127.006 48.3066L128.513 48.1201C130.225 47.8042 131.751 47.0962 133.052 45.9621C133.796 45.3054 134.403 44.5088 134.839 43.6176C135.36 42.5761 135.583 41.4392 135.639 40.2874C135.732 39.6366 135.694 38.9667 135.585 38.2969V38.2955ZM132.886 40.9368C132.811 42.1281 132.57 43.2813 131.956 44.3229C131.175 45.6816 130.058 46.6306 128.515 46.9642C127.845 47.1003 127.175 47.1684 126.472 47.0758C125.969 47.0214 125.487 46.9642 125.021 46.7967C124.184 46.4972 123.885 45.9798 123.868 45.1629L123.849 33.9441C123.849 33.2743 124.148 33.1272 124.63 33.1068C125.356 33.0524 126.101 33.0701 126.826 33.1436C127.599 33.2183 128.357 33.4016 129.078 33.6882C129.614 33.9115 130.11 34.2195 130.549 34.6004C131.553 35.4581 132.223 36.5337 132.591 37.7999C132.89 38.8238 132.945 39.8653 132.89 40.9069L132.886 40.9368ZM151.049 42.7612C151.049 42.6496 151.049 42.557 151.03 42.4454C150.862 41.4215 150.322 40.64 149.486 40.045C148.947 39.6543 148.332 39.3942 147.699 39.2077C147.588 39.1709 147.495 39.1328 147.384 39.1151C147.403 39.0225 147.458 39.0035 147.514 38.9844C147.886 38.7979 148.24 38.5937 148.556 38.3146C149.133 37.8312 149.509 37.2349 149.709 36.5092C149.821 36.1185 149.821 35.7277 149.784 35.3179C149.754 34.8385 149.616 34.3721 149.38 33.9532C149.145 33.5344 148.819 33.1739 148.425 32.8985C147.567 32.2654 146.564 32.0054 145.522 31.9863C143.513 31.9496 141.486 31.9863 139.477 31.9863C138.9 31.9863 138.324 32.0231 137.728 31.9319C137.616 31.9128 137.455 31.8774 137.374 32.0067C137.238 32.2491 137.074 32.4901 137.02 32.7692C137.001 32.8999 137.039 32.9734 137.187 32.9925L138.471 33.179C138.975 33.2539 139.329 33.533 139.364 33.9795C139.401 34.2882 139.419 34.5987 139.419 34.9095L139.382 38.3881L139.363 45.2718C139.363 45.6803 139.308 46.0724 139.232 46.4808C139.214 46.6105 139.159 46.7322 139.073 46.8312C138.987 46.9302 138.875 47.0024 138.749 47.0391C138.377 47.1507 138.023 47.2623 137.632 47.2623C137.528 47.2524 137.423 47.2783 137.336 47.3357C137.248 47.3931 137.182 47.4786 137.149 47.5782C137.074 47.7457 137.013 47.9322 136.982 48.0997C136.945 48.3229 137.001 48.3992 137.224 48.372C137.391 48.3529 143.532 48.5027 144.685 48.391C145.374 48.3161 146.047 48.2236 146.731 48.0193C147.902 47.6476 148.983 47.1071 149.838 46.1949C150.546 45.4502 150.955 44.557 150.992 43.5155C151.046 43.2731 151.046 43.0322 151.046 42.7708L151.049 42.7612ZM142.025 35.1368L142.079 33.6487C142.079 33.3696 142.191 33.2403 142.47 33.1831C142.916 33.0905 143.363 33.1286 143.81 33.1463C144.256 33.1831 144.684 33.2389 145.13 33.3696C145.947 33.6119 146.582 34.0776 146.955 34.8577C147.124 35.2124 147.213 35.6002 147.215 35.9932C147.234 36.5147 147.196 37.0171 146.991 37.5181C146.676 38.207 146.175 38.6536 145.447 38.7843C144.72 38.915 142.656 38.8592 142.341 38.8592C142.061 38.8592 142.041 38.8224 142.041 38.5433V36.791C141.997 36.2462 141.991 35.6989 142.022 35.1532L142.025 35.1368ZM148.07 45.1466C147.754 45.9839 147.177 46.5625 146.358 46.8757C145.912 47.0431 145.465 47.148 144.997 47.118C144.42 47.099 143.844 47.118 143.268 47.0064C142.486 46.8389 142.132 46.0942 142.076 45.555C141.984 44.606 142.04 43.638 142.022 42.9314V40.4753C142.022 40.1757 142.059 40.0845 142.376 40.0845L144.125 40.1036L145.317 40.2397C146.154 40.4262 146.917 40.7435 147.513 41.3929C147.996 41.9144 148.258 42.5461 148.313 43.235C148.368 43.8858 148.333 44.5189 148.09 45.133L148.07 45.1466Z" fill="#2E3F69"/>
<path id="Vector_6" d="M100.794 39.5414L101.277 39.6163C101.799 39.6353 102.413 39.4488 102.598 38.7231C102.7 38.3765 102.7 38.0078 102.598 37.6611C102.486 37.6611 102.431 37.7537 102.375 37.7918C102.096 38.0151 101.78 38.1458 101.445 38.1826C100.775 38.2575 100.105 38.2194 99.4544 37.9784L98.5422 37.6625C97.906 37.4541 97.2364 37.3664 96.568 37.4038C95.619 37.4787 94.7259 37.7946 93.8886 38.2411C92.9954 38.7245 92.3637 39.4501 92.0642 40.4372C91.8967 41.0145 91.8776 41.6081 91.9525 42.2045C92.1391 43.5632 92.8457 44.5122 94.1105 45.0146C94.1854 45.0337 94.2412 45.0691 94.3147 45.0895C94.4822 45.1821 94.5013 45.276 94.3515 45.4053L93.8859 45.7212L92.7694 46.4101C92.4903 46.5776 92.4536 46.7097 92.5461 47.0051C92.6569 47.3527 92.863 47.6622 93.1411 47.8982C93.3964 48.1173 93.6857 48.2934 93.9975 48.4197C94.2017 48.5123 94.2017 48.5559 94.0166 48.7192L92.9546 49.4817C92.6006 49.754 92.2466 50.0263 91.9498 50.3748C91.7434 50.5957 91.5946 50.8641 91.5167 51.1562C91.4388 51.4483 91.4342 51.7551 91.5032 52.0495C91.6416 52.6953 91.9798 53.2812 92.4699 53.7241C92.9538 54.1721 93.5421 54.4918 94.1813 54.654C95.2228 54.9535 96.3025 54.9699 97.3631 54.7657C98.888 54.4865 100.222 53.8126 101.271 52.6635C101.996 51.9011 102.424 51.0079 102.462 49.9405C102.503 49.3232 102.323 48.7114 101.955 48.2141C101.587 47.7168 101.055 47.366 100.452 47.2243L99.4476 47.0378L96.3774 46.7655C96.0425 46.7464 95.7075 46.6906 95.4284 46.5231C95.0744 46.2999 94.9819 45.8723 95.2051 45.5932C95.3726 45.389 95.5768 45.2583 95.8382 45.2392L96.4332 45.1848C97.6099 45.0651 98.7145 44.5618 99.5769 43.7525C100.037 43.3263 100.367 42.7774 100.526 42.1704C100.749 41.3699 100.749 40.5366 100.563 39.7197C100.508 39.5155 100.526 39.4964 100.786 39.5332L100.794 39.5414ZM96.2331 48.8091C96.3447 48.8282 96.4564 48.8091 96.568 48.8091C97.3495 48.8459 98.1501 48.9017 98.9125 49.1086C99.1614 49.1822 99.4041 49.2755 99.6382 49.3877C100.383 49.7962 100.662 50.5042 100.568 51.2666C100.456 52.1039 99.9908 52.6989 99.2651 53.091C98.7818 53.3633 98.2413 53.4818 97.6831 53.5376C97.4789 53.5566 97.2923 53.5376 97.0881 53.5376C96.4373 53.5566 95.8042 53.4831 95.1902 53.2217C94.7627 53.0542 94.4087 52.8133 94.0928 52.477C93.442 51.8262 93.1398 50.6349 94.1119 49.6668C94.7068 49.1222 95.3781 48.7369 96.2331 48.8091ZM98.3543 43.0037C97.9635 43.9894 97.1072 44.2876 96.2521 44.1569C95.4706 44.0452 94.8934 43.6177 94.523 42.9097C94.0397 41.9608 93.9104 40.9764 94.1881 39.9512C94.3923 39.1887 94.858 38.6115 95.6762 38.4808C96.7178 38.2942 97.7185 38.6673 98.244 39.7088C98.5163 40.2126 98.6348 40.8253 98.6348 41.6993C98.6157 42.0533 98.5422 42.5367 98.3556 43.0023L98.3543 43.0037ZM74.912 41.7375C74.7445 40.7327 74.3728 39.8205 73.6839 39.058C72.6601 37.9225 71.3585 37.4242 69.8881 37.4202C68.6042 37.4011 67.3965 37.7741 66.3155 38.444C65.2527 39.08 64.4738 40.0986 64.1385 41.2909C63.8226 42.3706 63.8389 43.4693 64.084 44.5653C64.7348 47.5061 67.0058 48.7696 69.7206 48.5844C70.5212 48.53 71.2836 48.2686 72.0079 47.9146C73.0876 47.4108 73.8691 46.6116 74.4082 45.551C74.8358 44.6769 75.0209 43.7457 75.0032 42.6851L74.9106 41.7361L74.912 41.7375ZM72.2707 45.8683C72.1376 46.2869 71.8854 46.6577 71.545 46.9353C71.2045 47.2129 70.7906 47.3852 70.3537 47.4313C69.5368 47.5429 68.7716 47.3387 68.0841 46.854C67.5877 46.4889 67.1858 46.0104 66.9118 45.4584C66.1494 43.8954 66.0187 42.2589 66.4081 40.5843C66.5334 40.066 66.8046 39.5945 67.1896 39.2255C67.8785 38.5924 68.6777 38.444 69.5722 38.6305C70.4299 38.8171 71.0794 39.2813 71.6145 39.9893C72.1495 40.6973 72.396 41.5142 72.5444 42.3719C72.6192 42.7994 72.6192 43.246 72.6369 43.5251C72.6369 44.4183 72.5621 45.1589 72.2829 45.8696L72.2707 45.8683ZM115.566 41.8872C115.43 40.8076 115.027 39.8218 114.263 39.0036C113.259 37.9062 111.956 37.4406 110.506 37.4215C109.259 37.4025 108.105 37.7564 107.045 38.3705C105.853 39.0785 105.035 40.0819 104.719 41.4407C104.342 42.9231 104.5 44.491 105.166 45.8683C105.779 47.1712 106.821 48.0085 108.199 48.3802C109.724 48.7887 111.177 48.6035 112.59 47.9146C113.818 47.3196 114.692 46.3897 115.195 45.1235C115.494 44.3788 115.603 43.5796 115.622 42.6483C115.641 42.4808 115.603 42.1827 115.568 41.8859L115.566 41.8872ZM112.999 45.6273C112.699 46.6321 112.069 47.2829 111.008 47.4326C110.227 47.5443 109.483 47.3577 108.812 46.9112C108.235 46.5204 107.826 45.999 107.528 45.3863C107.193 44.7355 107.007 44.0466 106.933 43.3399C106.821 42.4659 106.821 41.6108 107.026 40.7354C107.065 40.5628 107.121 40.3945 107.193 40.233C107.715 38.9301 108.868 38.3351 110.227 38.6332C111.139 38.8375 111.826 39.3412 112.348 40.1037C112.852 40.8484 113.093 41.6667 113.206 42.5544C113.26 42.9084 113.28 43.28 113.26 43.5959C113.26 44.3216 113.206 44.9915 112.988 45.6422L112.999 45.6273Z" fill="#2E3F69"/>
</g>
</g>
</svg>
