<svg width="32" height="32" viewBox="0 0 32 32" fill="none" xmlns="http://www.w3.org/2000/svg">
<g id="Coins">
<path id="Vector" d="M15.8316 16.6738C22.7368 16.6738 28.2947 13.3054 28.2947 9.09485C28.2947 4.88433 22.7368 1.68433 15.8316 1.68433C8.75788 1.68433 3.36841 5.05275 3.36841 9.26327C3.36841 13.4738 8.75788 16.6738 15.8316 16.6738ZM15.8316 5.05275C21.0526 5.05275 24.9263 7.24222 24.9263 9.26327C24.9263 11.2843 21.0526 13.4738 15.8316 13.4738C10.6105 13.3054 6.73683 11.1159 6.73683 9.26327C6.73683 7.41064 10.6105 5.05275 15.8316 5.05275Z" fill="#323232"/>
<path id="Vector_2" d="M26.7792 16.337C25.9371 15.8318 24.9265 16.1686 24.4213 16.8423C23.5792 18.5265 20.2107 20.0423 15.8318 20.0423C11.2844 20.0423 8.08441 18.5265 7.07388 16.8423C6.56862 16.1686 5.55809 15.8318 4.71599 16.337C3.87388 16.8423 3.70546 17.8528 4.21072 18.6949C6.06336 21.5581 10.6107 23.4107 15.8318 23.4107C21.0528 23.4107 25.6002 21.5581 27.4528 18.6949C27.7897 17.8528 27.6213 16.8423 26.7792 16.337Z" fill="#323232"/>
<path id="Vector_3" d="M26.7788 23.9158C25.9367 23.4105 24.9262 23.7474 24.421 24.4211C23.4104 25.9369 20.2104 27.6211 15.6631 27.6211C11.2841 27.6211 7.91571 26.1053 6.90518 24.4211C6.39992 23.579 5.38939 23.4105 4.54729 23.9158C3.70518 24.4211 3.53676 25.4316 4.04202 26.2737C5.89465 29.1369 10.442 30.9895 15.6631 30.9895C20.8841 30.9895 25.4315 29.1369 27.2841 26.2737C27.7894 25.4316 27.621 24.4211 26.7788 23.9158Z" fill="#323232"/>
</g>
</svg>
