<svg width="16" height="16" viewBox="0 0 16 16" fill="none" xmlns="http://www.w3.org/2000/svg">
<g id="Coins">
<path id="Vector" d="M7.91578 8.33684C11.3684 8.33684 14.1474 6.65263 14.1474 4.54737C14.1474 2.4421 11.3684 0.842102 7.91578 0.842102C4.37894 0.842102 1.6842 2.52631 1.6842 4.63158C1.6842 6.73684 4.37894 8.33684 7.91578 8.33684ZM7.91578 2.52631C10.5263 2.52631 12.4632 3.62105 12.4632 4.63158C12.4632 5.6421 10.5263 6.73684 7.91578 6.73684C5.30526 6.65263 3.36841 5.55789 3.36841 4.63158C3.36841 3.70526 5.30526 2.52631 7.91578 2.52631Z" fill="white"/>
<path id="Vector_2" d="M13.3893 8.16841C12.9683 7.91577 12.463 8.0842 12.2104 8.42104C11.7893 9.26315 10.1051 10.021 7.91565 10.021C5.64196 10.021 4.04196 9.26315 3.5367 8.42104C3.28407 8.0842 2.7788 7.91577 2.35775 8.16841C1.9367 8.42104 1.85249 8.92631 2.10512 9.34736C3.03143 10.7789 5.30512 11.7053 7.91565 11.7053C10.5262 11.7053 12.7999 10.7789 13.7262 9.34736C13.8946 8.92631 13.8104 8.42104 13.3893 8.16841Z" fill="white"/>
<path id="Vector_3" d="M13.3896 11.9579C12.9686 11.7053 12.4633 11.8737 12.2107 12.2105C11.7054 12.9684 10.1054 13.8105 7.83171 13.8105C5.64225 13.8105 3.95804 13.0526 3.45277 12.2105C3.20014 11.7895 2.69488 11.7053 2.27383 11.9579C1.85277 12.2105 1.76856 12.7158 2.02119 13.1368C2.94751 14.5684 5.2212 15.4947 7.83171 15.4947C10.4422 15.4947 12.7159 14.5684 13.6422 13.1368C13.8949 12.7158 13.8107 12.2105 13.3896 11.9579Z" fill="white"/>
</g>
</svg>
