<svg width="19" height="20" viewBox="0 0 19 20" fill="none" xmlns="http://www.w3.org/2000/svg">
<g id="Coins">
<path id="Vector" d="M9.4 10.4C13.5 10.4 16.8 8.4 16.8 5.9C16.8 3.4 13.5 1.5 9.4 1.5C5.2 1.5 2 3.5 2 6C2 8.5 5.2 10.4 9.4 10.4ZM9.4 3.5C12.5 3.5 14.8 4.8 14.8 6C14.8 7.2 12.5 8.5 9.4 8.5C6.3 8.4 4 7.1 4 6C4 4.9 6.3 3.5 9.4 3.5Z" fill="#FBFBFB"/>
<path id="Vector_2" d="M15.9 10.2C15.4 9.89999 14.8 10.1 14.5 10.5C14 11.5 12 12.4 9.4 12.4C6.69999 12.4 4.79999 11.5 4.19999 10.5C3.89999 10.1 3.29999 9.89999 2.79999 10.2C2.29999 10.5 2.19999 11.1 2.49999 11.6C3.59999 13.3 6.29999 14.4 9.4 14.4C12.5 14.4 15.2 13.3 16.3 11.6C16.5 11.1 16.4 10.5 15.9 10.2Z" fill="#FBFBFB"/>
<path id="Vector_3" d="M15.9 14.7C15.4 14.4 14.8 14.6 14.5 15C13.9 15.9 12 16.9 9.3 16.9C6.70001 16.9 4.70001 16 4.10001 15C3.80001 14.5 3.20001 14.4 2.70001 14.7C2.20001 15 2.10001 15.6 2.40001 16.1C3.50001 17.8 6.20001 18.9 9.3 18.9C12.4 18.9 15.1 17.8 16.2 16.1C16.5 15.6 16.4 15 15.9 14.7Z" fill="#FBFBFB"/>
</g>
</svg>
