<svg width="24" height="24" viewBox="0 0 24 24" fill="none" xmlns="http://www.w3.org/2000/svg">
<g id="three_dots_button">
<path id="Vector" d="M12 11C11.3125 11 10.75 11.5625 10.75 12.25C10.75 12.9375 11.3125 13.5 12 13.5C12.6875 13.5 13.25 12.9375 13.25 12.25C13.25 11.5625 12.6875 11 12 11ZM15.75 11C15.0625 11 14.5 11.5625 14.5 12.25C14.5 12.9375 15.0625 13.5 15.75 13.5C16.4375 13.5 17 12.9375 17 12.25C17 11.5625 16.4375 11 15.75 11ZM8.25 11C7.5625 11 7 11.5625 7 12.25C7 12.9375 7.5625 13.5 8.25 13.5C8.9375 13.5 9.5 12.9375 9.5 12.25C9.5 11.5625 8.9375 11 8.25 11Z" fill="white"/>
</g>
</svg>
