<svg width="10" height="10" viewBox="0 0 10 10" fill="none" xmlns="http://www.w3.org/2000/svg">
<g id="Refresh Cw" clip-path="url(#clip0_239_145)">
<path id="Vector" d="M9.58331 1.66667V4.16667H7.08331" stroke="white" stroke-width="0.833333" stroke-linecap="round" stroke-linejoin="round"/>
<path id="Vector_2" d="M0.416687 8.33333V5.83333H2.91669" stroke="white" stroke-width="0.833333" stroke-linecap="round" stroke-linejoin="round"/>
<path id="Vector_3" d="M1.46252 3.75C1.67384 3.15283 2.03299 2.61892 2.50646 2.19809C2.97994 1.77726 3.5523 1.48324 4.17014 1.34344C4.78798 1.20365 5.43117 1.22264 6.03968 1.39866C6.6482 1.57467 7.20221 1.90196 7.65002 2.35L9.58335 4.16667M0.416687 5.83333L2.35002 7.65C2.79783 8.09804 3.35184 8.42533 3.96036 8.60134C4.56887 8.77736 5.21206 8.79635 5.8299 8.65656C6.44774 8.51676 7.0201 8.22274 7.49358 7.80191C7.96705 7.38108 8.3262 6.84717 8.53752 6.25" stroke="white" stroke-width="0.833333" stroke-linecap="round" stroke-linejoin="round"/>
</g>
<defs>
<clipPath id="clip0_239_145">
<rect width="10" height="10" fill="white"/>
</clipPath>
</defs>
</svg>
