<svg width="24" height="24" viewBox="0 0 24 24" fill="none" xmlns="http://www.w3.org/2000/svg">
<g id="refresh">
<path id="Vector" d="M7.49995 11.284C7.86553 8.82345 10.1758 7.12233 12.6602 7.4844C13.5078 7.60793 14.3029 7.96612 14.9539 8.51773L14.3678 9.09817C14.1714 9.29277 14.1714 9.60825 14.368 9.8028C14.4623 9.89617 14.5902 9.94865 14.7235 9.94867H17.0306C17.3084 9.94867 17.5336 9.72561 17.5336 9.45044V7.16549C17.5336 6.89032 17.3083 6.6673 17.0305 6.66735C16.8971 6.66737 16.7692 6.71985 16.6749 6.81322L16.0209 7.46093C13.5269 5.25912 9.70298 5.47656 7.47986 7.9466C6.69227 8.82165 6.18117 9.90631 6.00987 11.0662C5.94234 11.4774 6.22416 11.865 6.63933 11.9319C6.67673 11.9379 6.71451 11.9412 6.7524 11.9416C7.13225 11.9376 7.45109 11.6571 7.49995 11.284Z" fill="#222C45"/>
<path id="Vector_2" d="M17.2472 11.9416C16.8674 11.9457 16.5485 12.2262 16.4996 12.5993C16.1341 15.0598 13.8238 16.761 11.3395 16.3989C10.4918 16.2754 9.69673 15.9171 9.0457 15.3655L9.63176 14.7851C9.82819 14.5905 9.82814 14.275 9.63164 14.0805C9.53734 13.9871 9.40944 13.9346 9.27609 13.9346H6.96906C6.69123 13.9346 6.466 14.1577 6.466 14.4328V16.7178C6.46607 16.993 6.69134 17.216 6.96918 17.216C7.10253 17.2159 7.23043 17.1635 7.32474 17.0701L7.97871 16.4224C10.4721 18.6244 14.2958 18.4076 16.5191 15.9381C17.3071 15.0629 17.8185 13.9779 17.9897 12.8175C18.0575 12.4064 17.776 12.0186 17.3609 11.9514C17.3233 11.9453 17.2853 11.9421 17.2472 11.9416Z" fill="#222C45"/>
</g>
</svg>
