<svg width="24" height="24" viewBox="0 0 24 24" fill="none" xmlns="http://www.w3.org/2000/svg">
<g id="Delete">
<path id="Vector" d="M9.9 7.9H9.8C9.855 7.9 9.9 7.855 9.9 7.8V7.9H13.7V7.8C13.7 7.855 13.745 7.9 13.8 7.9H13.7V8.8H14.6V7.8C14.6 7.35875 14.2412 7 13.8 7H9.8C9.35875 7 9 7.35875 9 7.8V8.8H9.9V7.9ZM16.2 8.8H7.4C7.17875 8.8 7 8.97875 7 9.2V9.6C7 9.655 7.045 9.7 7.1 9.7H7.855L8.16375 16.2375C8.18375 16.6637 8.53625 17 8.9625 17H14.6375C15.065 17 15.4163 16.665 15.4362 16.2375L15.745 9.7H16.5C16.555 9.7 16.6 9.655 16.6 9.6V9.2C16.6 8.97875 16.4212 8.8 16.2 8.8ZM14.5412 16.1H9.05875L8.75625 9.7H14.8437L14.5412 16.1Z" fill="white"/>
</g>
</svg>
