<svg width="24" height="24" viewBox="0 0 24 24" fill="none" xmlns="http://www.w3.org/2000/svg">
<g id="delete">
<path id="Vector" d="M9.48 7.08H9.36C9.426 7.08 9.48 7.026 9.48 6.96V7.08H14.04V6.96C14.04 7.026 14.094 7.08 14.16 7.08H14.04V8.16H15.12V6.96C15.12 6.4305 14.6895 6 14.16 6H9.36C8.8305 6 8.4 6.4305 8.4 6.96V8.16H9.48V7.08ZM17.04 8.16H6.48C6.2145 8.16 6 8.3745 6 8.64V9.12C6 9.186 6.054 9.24 6.12 9.24H7.026L7.3965 17.085C7.4205 17.5965 7.8435 18 8.355 18H15.165C15.678 18 16.0995 17.598 16.1235 17.085L16.494 9.24H17.4C17.466 9.24 17.52 9.186 17.52 9.12V8.64C17.52 8.3745 17.3055 8.16 17.04 8.16ZM15.0495 16.92H8.4705L8.1075 9.24H15.4125L15.0495 16.92Z" fill="#222C45"/>
</g>
</svg>
